<?xml version="1.0" encoding="iso-8859-1"?>
<!-- Uploaded to: SVG Repo, www.svgrepo.com, Generator: SVG Repo Mixer Tools -->
<svg fill="#000000" height="800px" width="800px" version="1.1" id="Capa_1" xmlns="http://www.w3.org/2000/svg" xmlns:xlink="http://www.w3.org/1999/xlink" 
	 viewBox="0 0 41.948 41.948" xml:space="preserve">
<g>
	<g id="c65_sport_shoes">
		<path d="M40.859,31.671v-2.965c0-0.195-0.418-0.354-0.924-0.354H0.93C0.42,28.351,0,28.51,0,28.706v2.965
			c0,0.193,0.42,0.354,0.93,0.354h39.005C40.441,32.024,40.859,31.865,40.859,31.671z"/>
		<path d="M39.259,21.575c0,0-15.575-1.708-22.614-10.881c0,0-3.311-3.732-0.537,5.229c0,0,0.428,6.506-6.932,3.199
			c0,0-2.51-0.862-4.801-6.402c0,0-1.119-2.248-2.83-1.769C0.867,11.173,0.053,11.966,0,14.535v1.178h4.561v1.881H0v9.104h16.535
			l4.439-7.681h2.176l-4.217,7.681h2.629l2.959-4.854h2.326L24,26.698h2.604l1.371-2.428H30l-1.342,2.427h12.197
			C40.859,26.697,44.164,22.749,39.259,21.575z"/>
	</g>
	<g id="Capa_1_236_">
	</g>
</g>
</svg>